<?xml version="1.0" standalone="no"?>
<!DOCTYPE svg PUBLIC "-//W3C//DTD SVG 20010904//EN"
 "http://www.w3.org/TR/2001/REC-SVG-20010904/DTD/svg10.dtd">
<svg version="1.0" xmlns="http://www.w3.org/2000/svg"
 width="512.000000pt" height="512.000000pt" viewBox="0 0 512.000000 512.000000"
 preserveAspectRatio="xMidYMid meet">

<g transform="translate(0.000000,512.000000) scale(0.100000,-0.100000)"
fill="#000000" stroke="none">
<path d="M1809 5092 c-39 -20 -62 -41 -84 -77 l-30 -48 -3 -181 c-2 -114 1
-195 8 -219 14 -48 62 -102 114 -130 l41 -22 705 0 c703 0 705 0 745 22 22 11
52 34 67 50 51 54 58 86 58 281 0 171 -1 180 -25 229 -26 51 -72 91 -128 112
-19 7 -259 11 -722 11 l-693 0 -53 -28z m1445 -143 l26 -20 0 -159 c0 -140 -2
-160 -19 -181 l-19 -24 -682 0 -682 0 -19 24 c-17 21 -19 41 -19 181 l0 159
26 20 c26 21 34 21 694 21 660 0 668 0 694 -21z"/>
<path d="M860 4823 c-86 -30 -142 -80 -191 -173 l-24 -45 0 -2180 0 -2180 24
-52 c29 -66 111 -143 176 -169 49 -18 95 -19 1715 -19 1620 0 1666 1 1715 19
65 26 147 103 176 169 l24 52 0 2180 0 2180 -28 53 c-34 65 -92 122 -155 153
-45 23 -56 24 -329 27 l-283 3 -25 -25 c-30 -30 -32 -65 -6 -97 19 -24 20 -24
293 -29 181 -3 280 -9 293 -17 31 -18 73 -65 84 -96 8 -20 11 -678 11 -2160 0
-2010 -1 -2134 -18 -2166 -9 -19 -34 -48 -55 -65 l-39 -31 -1631 -3 c-898 -1
-1647 0 -1665 3 -40 7 -101 59 -118 102 -12 27 -14 396 -14 2162 0 1480 3
2138 11 2158 11 31 53 78 84 96 13 8 112 14 293 17 273 5 274 5 293 29 26 32
24 67 -6 96 l-24 25 -268 0 c-217 -1 -277 -4 -313 -17z"/>
<path d="M1255 4041 c-69 -17 -108 -48 -141 -111 -15 -29 -19 -65 -22 -216 -5
-220 5 -279 55 -334 59 -66 89 -72 334 -68 205 3 216 4 252 27 21 13 50 42 65
64 27 40 27 41 30 255 3 180 1 222 -13 258 -23 60 -81 109 -144 123 -57 12
-368 13 -416 2z m403 -157 c21 -15 22 -20 22 -204 0 -158 -3 -191 -16 -204
-24 -24 -385 -24 -405 1 -10 12 -15 59 -17 177 -4 188 1 224 31 236 12 5 99 9
192 9 139 1 175 -2 193 -15z"/>
<path d="M2303 3943 c-50 -10 -70 -86 -33 -123 20 -20 33 -20 868 -20 821 0
849 1 866 19 25 27 24 78 -3 104 l-22 22 -827 1 c-455 1 -837 0 -849 -3z"/>
<path d="M2272 3537 c-31 -33 -29 -80 4 -106 26 -21 37 -21 456 -21 l429 0 24
25 c32 31 32 69 0 100 l-24 25 -434 0 -434 0 -21 -23z"/>
<path d="M1225 2775 c-22 -8 -57 -32 -77 -55 -52 -58 -61 -112 -56 -334 4
-202 14 -239 80 -289 52 -39 100 -47 293 -47 201 0 240 7 292 53 66 58 73 86
73 313 0 259 -13 299 -114 349 -48 24 -56 25 -250 25 -146 -1 -212 -5 -241
-15z m437 -152 c16 -14 18 -35 18 -204 0 -183 -1 -188 -22 -203 -31 -22 -364
-23 -394 -2 -18 13 -19 28 -19 206 0 178 1 193 19 206 15 11 60 14 200 14 153
0 182 -2 198 -17z"/>
<path d="M2276 2669 c-34 -27 -36 -79 -4 -109 22 -20 30 -20 865 -20 830 0
843 0 863 20 33 33 30 75 -6 108 l-25 22 -833 0 c-828 0 -833 0 -860 -21z"/>
<path d="M2270 2280 c-27 -27 -26 -81 1 -106 20 -18 42 -19 461 -19 l440 0 19
24 c26 32 24 73 -4 99 -23 22 -25 22 -460 22 -424 0 -438 -1 -457 -20z"/>
<path d="M1209 1510 c-20 -10 -50 -35 -67 -54 -45 -51 -55 -116 -51 -331 4
-182 4 -182 34 -230 20 -32 45 -56 74 -72 42 -22 53 -23 263 -23 243 0 267 5
321 70 43 51 49 88 45 317 l-3 211 -30 44 c-18 25 -49 52 -75 66 -42 21 -56
22 -260 22 -192 -1 -219 -3 -251 -20z m455 -146 c13 -13 16 -46 16 -203 0
-132 -4 -191 -12 -199 -9 -9 -68 -12 -204 -12 -188 0 -193 1 -208 22 -13 18
-16 55 -16 193 0 138 3 175 16 193 15 21 20 22 204 22 158 0 191 -3 204 -16z"/>
<path d="M2272 1410 c-32 -30 -30 -82 4 -109 27 -21 32 -21 860 -21 l833 0 25
23 c36 32 39 74 6 107 -20 20 -33 20 -863 20 -835 0 -843 0 -865 -20z"/>
<path d="M2300 1043 c-52 -19 -68 -85 -30 -123 19 -19 33 -20 458 -20 l439 0
21 23 c27 29 28 67 3 98 l-19 24 -429 2 c-235 1 -435 -1 -443 -4z"/>
</g>
</svg>
