<?xml version="1.0" standalone="no"?>
<!DOCTYPE svg PUBLIC "-//W3C//DTD SVG 20010904//EN"
 "http://www.w3.org/TR/2001/REC-SVG-20010904/DTD/svg10.dtd">
<svg version="1.0" xmlns="http://www.w3.org/2000/svg"
 width="512.000000pt" height="512.000000pt" viewBox="0 0 512.000000 512.000000"
 preserveAspectRatio="xMidYMid meet">

<g transform="translate(0.000000,512.000000) scale(0.100000,-0.100000)"
fill="#000000" stroke="none">
<path d="M2585 5109 c-465 -67 -843 -430 -925 -889 -7 -36 -14 -74 -16 -85 -3
-16 -19 -24 -75 -37 -136 -33 -183 -69 -181 -140 1 -41 49 -88 91 -88 15 0 54
9 87 21 73 26 202 35 273 20 29 -6 84 -25 121 -41 85 -37 111 -38 150 -2 40
36 47 77 20 120 -24 39 -129 92 -222 113 -69 15 -70 19 -38 145 79 310 334
564 649 645 403 104 834 -96 1024 -476 40 -81 72 -178 82 -252 l7 -53 -30 0
c-48 0 -197 -47 -280 -89 -87 -44 -186 -115 -231 -167 -51 -58 -37 -137 29
-164 42 -18 67 -8 150 59 81 65 180 118 275 148 46 14 91 18 195 17 117 0 145
-4 212 -26 121 -40 204 -92 293 -182 94 -96 145 -179 183 -296 23 -75 26 -100
26 -215 -1 -149 -21 -229 -89 -352 -52 -94 -188 -227 -280 -275 -133 -69 -182
-80 -367 -86 l-168 -4 0 289 0 290 -24 26 c-14 15 -39 28 -62 32 -210 32 -331
108 -398 248 -58 122 -12 112 -506 112 -494 0 -448 10 -506 -112 -67 -140
-188 -216 -398 -248 -23 -4 -48 -17 -62 -32 l-24 -26 0 -289 0 -289 -342 3
c-337 3 -344 3 -388 26 -64 33 -125 96 -152 156 -34 77 -32 182 5 258 32 65
90 121 156 151 37 17 74 22 198 26 141 6 153 8 176 29 35 33 40 63 23 130 -8
31 -18 86 -21 121 -9 81 -42 121 -100 121 -75 0 -110 -52 -99 -146 l7 -54 -50
0 c-283 0 -524 -237 -523 -513 1 -209 133 -394 343 -480 49 -21 73 -22 421
-27 l370 -5 33 -105 33 -105 0 -502 c0 -490 -1 -504 -20 -523 -19 -19 -33 -20
-268 -20 l-247 1 -22 48 c-64 136 -228 215 -374 181 -71 -17 -102 -33 -156
-83 -58 -53 -89 -107 -104 -184 -24 -115 14 -227 104 -310 54 -50 85 -66 156
-83 146 -34 310 45 374 181 l22 48 257 1 c293 0 328 7 400 77 74 72 78 97 78
486 l0 342 109 -106 c123 -120 271 -225 404 -284 l87 -39 0 -316 0 -316 -35
-13 c-52 -18 -140 -105 -170 -165 -65 -133 -34 -290 78 -393 57 -52 88 -68
165 -84 50 -11 74 -11 124 0 77 16 108 32 165 84 112 103 143 260 78 393 -30
60 -118 147 -170 165 l-35 13 0 316 0 316 88 39 c132 59 280 164 403 284 l109
106 0 -342 c0 -389 4 -414 78 -486 72 -70 107 -77 400 -77 l257 -1 22 -48 c64
-136 228 -215 374 -181 71 17 102 33 156 83 90 83 128 195 104 310 -15 77 -46
131 -104 184 -54 50 -85 66 -156 83 -146 34 -310 -45 -374 -181 l-22 -48 -247
-1 c-235 0 -249 1 -268 20 -19 19 -20 33 -20 523 l0 502 33 105 33 105 190 6
c149 6 204 11 262 28 419 122 700 505 679 926 -17 328 -191 610 -477 773 -67
37 -217 89 -291 99 l-53 8 -12 71 c-21 124 -44 196 -104 319 -91 187 -215 327
-392 442 -211 137 -492 198 -743 162z m334 -1893 c78 -121 226 -228 374 -271
l57 -16 0 -242 c0 -254 -8 -326 -51 -469 -27 -87 -101 -235 -159 -313 -65 -91
-216 -235 -313 -299 -90 -60 -230 -126 -267 -126 -37 0 -177 66 -267 126 -97
64 -248 208 -313 299 -58 78 -132 226 -159 313 -43 143 -51 215 -51 469 l0
242 58 16 c147 43 295 150 373 271 l42 64 317 0 317 0 42 -64z m-2051 -2176
c42 -26 72 -76 72 -120 0 -44 -30 -94 -72 -120 -117 -71 -259 71 -188 188 26
42 76 72 120 72 19 0 50 -9 68 -20z m3520 0 c94 -57 94 -183 0 -240 -117 -71
-259 71 -188 188 26 42 76 72 120 72 19 0 50 -9 68 -20z m-1760 -580 c68 -42
91 -124 52 -188 -57 -94 -183 -94 -240 0 -71 117 71 259 188 188z"/>
<path d="M2913 2909 c-23 -4 -56 -15 -75 -25 -18 -9 -124 -107 -235 -217
l-202 -200 -56 51 c-56 52 -125 82 -185 82 -134 0 -260 -127 -260 -261 0 -89
29 -134 197 -301 174 -173 211 -197 303 -198 108 0 133 19 466 353 315 315
340 346 351 437 20 167 -137 310 -304 279z m81 -210 c14 -11 26 -30 26 -42 0
-15 -90 -112 -297 -319 -235 -235 -303 -298 -323 -298 -20 0 -58 32 -163 138
-144 145 -155 164 -117 202 34 34 58 25 145 -60 89 -88 125 -105 171 -85 16 7
126 111 244 230 190 192 260 255 281 255 4 0 18 -9 33 -21z"/>
<path d="M1127 3762 c-36 -38 -37 -89 -1 -131 21 -26 33 -31 69 -31 59 0 95
36 95 95 0 59 -36 95 -94 95 -33 0 -48 -6 -69 -28z"/>
<path d="M770 1553 c-52 -19 -83 -89 -60 -134 40 -77 140 -78 179 -2 20 39 13
73 -23 109 -33 33 -60 40 -96 27z"/>
<path d="M4284 1550 c-30 -12 -64 -58 -64 -87 0 -56 46 -103 100 -103 93 0
131 114 59 174 -31 27 -58 31 -95 16z"/>
<path d="M744 462 c-73 -58 -44 -164 49 -179 32 -5 41 -1 72 30 22 22 35 44
35 62 0 58 -45 105 -100 105 -19 0 -45 -8 -56 -18z"/>
<path d="M4264 462 c-51 -41 -57 -97 -16 -142 39 -44 89 -50 130 -15 73 61 36
175 -58 175 -19 0 -45 -8 -56 -18z"/>
<path d="M1984 430 c-31 -12 -64 -59 -64 -91 0 -38 44 -87 85 -95 111 -21 160
133 58 185 -25 13 -49 13 -79 1z"/>
<path d="M3055 428 c-74 -40 -73 -139 2 -177 36 -18 71 -13 105 18 27 24 33
36 33 71 0 73 -79 122 -140 88z"/>
</g>
</svg>
