<?xml version="1.0" standalone="no"?>
<!DOCTYPE svg PUBLIC "-//W3C//DTD SVG 20010904//EN"
 "http://www.w3.org/TR/2001/REC-SVG-20010904/DTD/svg10.dtd">
<svg version="1.0" xmlns="http://www.w3.org/2000/svg"
 width="512.000000pt" height="512.000000pt" viewBox="0 0 512.000000 512.000000"
 preserveAspectRatio="xMidYMid meet">

<g transform="translate(0.000000,512.000000) scale(0.100000,-0.100000)"
fill="#000000" stroke="none">
<path d="M1105 3819 c-390 -53 -740 -290 -938 -634 -266 -462 -209 -1046 142
-1453 311 -361 807 -518 1267 -402 193 49 334 114 481 224 85 64 312 284 405
394 l71 83 82 -81 c47 -46 91 -80 102 -80 37 0 73 38 73 75 0 29 -13 48 -75
117 -41 45 -75 86 -75 91 0 9 210 267 218 267 2 0 43 -41 91 -92 115 -122 327
-317 426 -391 92 -69 231 -139 325 -164 103 -27 272 -22 383 11 150 45 265
114 368 223 146 153 219 337 219 553 0 216 -73 400 -219 553 -103 109 -218
178 -368 223 -121 36 -291 38 -407 6 -190 -54 -329 -152 -533 -374 -126 -137
-501 -570 -680 -785 -248 -299 -443 -486 -612 -586 -142 -85 -407 -157 -576
-157 -241 0 -498 89 -694 240 -407 315 -545 884 -326 1347 172 364 503 600
906 645 434 48 848 -171 1271 -672 l47 -56 -90 -109 c-50 -61 -96 -116 -103
-123 -9 -10 -47 23 -186 161 -279 276 -426 388 -587 446 -149 55 -330 64 -374
20 -25 -25 -25 -80 1 -104 15 -14 40 -18 122 -20 154 -4 259 -45 413 -160 92
-68 331 -291 423 -393 l74 -82 -22 -27 c-49 -62 -284 -314 -376 -403 -188
-182 -325 -246 -519 -244 -177 2 -330 67 -455 194 -127 129 -190 282 -190 460
0 215 88 384 283 546 43 36 50 81 17 114 -46 46 -117 12 -232 -107 -144 -152
-218 -342 -218 -560 0 -349 229 -659 563 -762 282 -87 549 -22 797 193 111 95
415 437 819 921 276 330 471 517 656 627 128 77 400 148 565 148 221 0 485
-87 662 -217 220 -162 378 -406 433 -668 23 -108 57 -142 118 -114 42 19 49
50 31 135 -96 465 -455 846 -913 968 -251 67 -499 57 -760 -31 -135 -45 -214
-85 -325 -164 -105 -75 -339 -299 -446 -427 -41 -50 -79 -90 -83 -89 -4 1 -54
54 -110 117 -300 336 -614 541 -932 610 -115 24 -323 34 -430 19z m2875 -613
c206 -38 381 -168 471 -351 52 -106 69 -180 69 -295 0 -115 -17 -189 -69 -295
-146 -296 -508 -439 -801 -316 -135 56 -283 174 -527 419 -90 90 -163 167
-163 171 0 23 417 462 500 526 169 130 334 174 520 141z"/>
<path d="M4997 2452 c-10 -11 -29 -67 -42 -124 -106 -470 -462 -801 -940 -875
-226 -34 -499 17 -715 134 -73 40 -197 122 -250 165 -64 52 -140 27 -140 -46
0 -39 24 -63 168 -160 408 -276 879 -329 1299 -145 376 165 664 533 734 937
12 68 11 74 -8 100 -26 35 -81 42 -106 14z"/>
</g>
</svg>
