<?xml version="1.0" standalone="no"?>
<!DOCTYPE svg PUBLIC "-//W3C//DTD SVG 20010904//EN"
 "http://www.w3.org/TR/2001/REC-SVG-20010904/DTD/svg10.dtd">
<svg version="1.0" xmlns="http://www.w3.org/2000/svg"
 width="512.000000pt" height="512.000000pt" viewBox="0 0 512.000000 512.000000"
 preserveAspectRatio="xMidYMid meet">

<g transform="translate(0.000000,512.000000) scale(0.100000,-0.100000)"
fill="#000000" stroke="none">
<path d="M2302 4738 l3 -383 255 0 255 0 3 383 2 382 -260 0 -260 0 2 -382z"/>
<path d="M1575 4935 c-135 -56 -219 -97 -217 -105 2 -10 59 -147 254 -617 16
-40 35 -73 41 -73 20 0 459 185 459 193 0 5 -64 163 -142 353 -106 256 -147
344 -159 343 -9 0 -115 -43 -236 -94z"/>
<path d="M3304 4992 c-173 -413 -274 -666 -267 -673 4 -4 110 -50 235 -102
l226 -94 147 354 c81 195 145 356 144 357 -2 2 -49 22 -104 44 -55 22 -160 66
-233 96 l-132 55 -16 -37z"/>
<path d="M747 4362 l-177 -177 270 -270 270 -270 180 180 180 180 -267 267
c-148 148 -270 268 -273 268 -3 0 -85 -80 -183 -178z"/>
<path d="M193 3568 c-50 -123 -93 -229 -95 -237 -2 -9 105 -58 342 -157 190
-79 350 -142 355 -140 16 6 199 456 189 465 -8 7 -687 291 -696 291 -2 0 -44
-100 -95 -222z"/>
<path d="M0 2560 l0 -260 383 2 382 3 0 255 0 255 -382 3 -383 2 0 -260z"/>
<path d="M4355 2807 c-3 -7 -4 -123 -3 -257 l3 -245 383 -3 382 -2 0 260 0
260 -380 0 c-298 0 -382 -3 -385 -13z"/>
<path d="M4293 2093 c-88 -210 -173 -419 -173 -429 0 -6 55 -35 123 -62 67
-28 224 -93 350 -145 125 -52 229 -92 231 -88 12 22 186 449 186 458 0 6 -33
25 -72 41 -40 17 -194 81 -343 142 -148 62 -273 114 -278 117 -4 2 -15 -13
-24 -34z"/>
<path d="M440 1945 c-231 -96 -344 -148 -342 -157 4 -13 183 -450 188 -457 3
-3 677 274 700 287 12 8 -174 464 -191 468 -5 2 -165 -62 -355 -141z"/>
<path d="M837 1202 l-267 -267 180 -180 180 -180 270 270 270 270 -177 177
c-98 98 -180 178 -183 178 -3 0 -125 -120 -273 -268z"/>
<path d="M3825 1290 l-180 -180 273 -273 272 -272 180 180 180 180 -273 273
-272 272 -180 -180z"/>
<path d="M3255 923 c-126 -52 -232 -97 -234 -99 -7 -6 284 -704 293 -704 12 0
449 180 459 189 6 6 -252 645 -281 696 -5 10 -62 -9 -237 -82z"/>
<path d="M1513 668 c-78 -189 -143 -349 -145 -356 -2 -8 73 -45 212 -103 118
-49 224 -92 235 -95 19 -5 35 29 163 338 78 189 142 348 142 354 0 9 -242 115
-455 200 -6 3 -74 -150 -152 -338z"/>
<path d="M2307 764 c-4 -4 -7 -178 -7 -386 l0 -378 260 0 260 0 -2 383 -3 382
-251 3 c-138 1 -253 -1 -257 -4z"/>
</g>
</svg>
