<?xml version="1.0" standalone="no"?>
<!DOCTYPE svg PUBLIC "-//W3C//DTD SVG 20010904//EN"
 "http://www.w3.org/TR/2001/REC-SVG-20010904/DTD/svg10.dtd">
<svg version="1.0" xmlns="http://www.w3.org/2000/svg"
 width="512.000000pt" height="512.000000pt" viewBox="0 0 512.000000 512.000000"
 preserveAspectRatio="xMidYMid meet">

<g transform="translate(0.000000,512.000000) scale(0.100000,-0.100000)"
fill="#000000" stroke="none">
<path d="M3808 4843 l-3 -278 -76 -5 c-64 -5 -83 -11 -114 -34 -65 -50 -65
-47 -65 -534 0 -503 2 -523 86 -689 91 -182 252 -320 454 -388 l65 -22 3 -706
c2 -631 0 -707 -14 -721 -14 -14 -69 -16 -465 -16 l-449 0 -2 1443 -3 1442
-26 55 c-37 80 -81 125 -157 162 l-67 33 -1360 0 -1360 0 -67 -33 c-73 -36
-123 -86 -160 -161 l-23 -46 0 -1760 0 -1760 27 -57 c30 -64 92 -129 148 -155
l39 -18 1 -234 c0 -263 4 -281 77 -331 l37 -25 360 -3 c377 -3 410 0 461 40
57 45 65 81 65 321 l0 217 395 0 395 0 0 -215 c0 -266 10 -299 102 -346 34
-18 64 -19 398 -19 392 0 400 1 452 56 44 48 48 71 48 313 l0 228 39 17 c53
24 125 100 153 161 19 42 23 71 26 187 l4 137 486 3 c483 3 487 3 544 26 113
45 211 166 237 290 7 36 11 282 11 765 l0 713 48 12 c74 20 201 87 269 142
120 97 217 244 264 400 22 72 23 92 27 523 3 442 3 449 -18 493 -31 63 -87 94
-168 94 l-62 0 0 280 0 280 -175 0 -175 0 0 -280 0 -280 -180 0 -180 0 0 280
0 280 -175 0 -175 0 -2 -277z m-928 -2258 l0 -1655 -1265 0 -1265 0 0 1655 0
1655 1265 0 1265 0 0 -1655z m1890 1327 c0 -376 -12 -431 -117 -543 -97 -104
-195 -143 -342 -137 -86 3 -105 7 -167 38 -89 43 -161 115 -205 205 l-34 70
-3 332 -3 333 435 0 436 0 0 -298z m-3902 -3449 l3 -113 -151 0 -150 0 0 115
0 116 148 -3 147 -3 3 -112z m1792 2 l0 -115 -150 0 -150 0 0 115 0 115 150 0
150 0 0 -115z"/>
<path d="M700 3715 l0 -175 915 0 915 0 0 175 0 175 -915 0 -915 0 0 -175z"/>
<path d="M700 3035 l0 -175 915 0 915 0 0 175 0 175 -915 0 -915 0 0 -175z"/>
<path d="M700 2355 l0 -175 915 0 915 0 0 175 0 175 -915 0 -915 0 0 -175z"/>
</g>
</svg>
