<?xml version="1.0" standalone="no"?>
<!DOCTYPE svg PUBLIC "-//W3C//DTD SVG 20010904//EN"
 "http://www.w3.org/TR/2001/REC-SVG-20010904/DTD/svg10.dtd">
<svg version="1.0" xmlns="http://www.w3.org/2000/svg"
 width="512.000000pt" height="512.000000pt" viewBox="0 0 512.000000 512.000000"
 preserveAspectRatio="xMidYMid meet">

<g transform="translate(0.000000,512.000000) scale(0.100000,-0.100000)"
fill="#000000" stroke="none">
<path d="M3009 4525 c-59 -19 -131 -83 -160 -142 -51 -105 -18 -230 76 -288
l48 -30 289 -3 c287 -3 290 -3 341 21 101 46 159 133 159 237 0 88 -40 152
-122 196 -31 17 -63 19 -310 21 -216 2 -285 -1 -321 -12z m551 -209 c0 -8 -12
-24 -26 -35 -25 -20 -39 -21 -261 -21 -201 0 -234 2 -240 15 -3 9 3 25 12 35
17 19 32 20 267 20 208 0 248 -2 248 -14z"/>
<path d="M1131 4164 c-29 -21 -52 -74 -44 -105 3 -13 17 -36 31 -51 l26 -28
509 0 509 0 29 29 c38 39 40 97 5 138 l-24 28 -509 3 c-459 2 -510 1 -532 -14z"/>
<path d="M4108 4143 c-44 -27 -61 -89 -38 -134 6 -10 57 -50 113 -88 115 -77
257 -198 306 -260 63 -79 123 -91 178 -36 32 32 35 40 30 75 -4 31 -19 56 -67
110 -72 81 -207 197 -312 268 -130 87 -159 96 -210 65z"/>
<path d="M3006 3975 c-134 -19 -221 -39 -356 -82 -145 -47 -398 -173 -515
-258 -49 -36 -93 -65 -96 -65 -3 0 -31 29 -62 64 -61 70 -92 83 -143 61 -40
-16 -64 -51 -64 -90 0 -33 16 -60 74 -129 l38 -46 -77 -82 c-139 -147 -247
-303 -340 -489 -96 -191 -107 -244 -59 -293 31 -31 70 -38 112 -20 26 11 39
27 63 81 138 309 276 503 502 704 299 266 649 417 1048 449 665 55 1222 -357
1353 -1000 84 -414 -65 -928 -382 -1321 -84 -104 -239 -250 -353 -332 -122
-87 -355 -204 -500 -250 -210 -67 -298 -81 -529 -81 -179 0 -216 2 -291 21
-320 81 -590 267 -756 520 -29 44 -53 84 -53 87 0 3 131 6 290 6 309 0 335 4
360 49 19 37 12 89 -17 120 l-28 30 -400 1 c-220 1 -615 1 -877 1 l-477 -1
-26 -23 c-18 -15 -28 -36 -32 -64 -5 -39 -2 -46 30 -78 l35 -35 454 0 454 0
43 -82 c64 -123 144 -231 251 -338 207 -207 452 -338 750 -401 149 -32 401
-32 585 0 421 74 803 270 1100 566 284 282 472 627 562 1028 24 110 27 142 27
327 1 161 -3 222 -17 285 -59 268 -164 486 -324 677 -193 229 -487 401 -801
469 -128 27 -413 35 -556 14z"/>
<path d="M3604 2956 c-99 -85 -249 -214 -334 -289 -147 -128 -156 -134 -183
-124 -43 14 -156 3 -202 -21 -60 -30 -129 -109 -150 -171 -81 -246 179 -425
398 -274 76 53 135 181 122 264 l-6 36 326 283 c179 155 330 290 335 300 35
66 -14 150 -88 150 -37 0 -53 -11 -218 -154z m-566 -618 c28 -28 0 -90 -49
-107 -75 -26 -92 44 -23 98 30 24 54 27 72 9z"/>
<path d="M443 2835 c-32 -32 -35 -40 -30 -76 7 -50 29 -76 76 -89 48 -13 555
-13 603 0 81 23 103 107 44 166 l-34 34 -312 0 -312 0 -35 -35z"/>
<path d="M4254 2383 c-39 -8 -64 -47 -85 -134 -104 -443 -360 -780 -749 -987
-159 -85 -425 -161 -564 -162 -106 -1 -166 -39 -166 -106 0 -83 46 -109 174
-100 272 21 559 119 789 269 236 155 449 393 577 647 74 146 150 387 150 474
0 65 -60 113 -126 99z"/>
<path d="M908 2313 c-48 -30 -63 -97 -32 -142 30 -42 71 -51 236 -51 l153 0 1
-93 c1 -120 8 -143 47 -167 38 -24 68 -25 106 -6 40 21 51 56 51 166 l0 100
240 0 c258 0 292 5 324 51 32 46 11 124 -39 147 -19 9 -163 12 -543 12 -464
-1 -520 -2 -544 -17z"/>
<path d="M889 981 c-23 -23 -29 -38 -29 -71 0 -33 6 -48 29 -71 l29 -29 227 0
c246 0 270 5 293 55 23 51 7 107 -39 131 -22 11 -78 14 -254 14 l-227 0 -29
-29z"/>
</g>
</svg>
