<?xml version="1.0" standalone="no"?>
<!DOCTYPE svg PUBLIC "-//W3C//DTD SVG 20010904//EN"
 "http://www.w3.org/TR/2001/REC-SVG-20010904/DTD/svg10.dtd">
<svg version="1.0" xmlns="http://www.w3.org/2000/svg"
 width="512.000000pt" height="512.000000pt" viewBox="0 0 512.000000 512.000000"
 preserveAspectRatio="xMidYMid meet">

<g transform="translate(0.000000,512.000000) scale(0.100000,-0.100000)"
fill="#000000" stroke="none">
<path d="M4775 5114 c-16 -2 -79 -9 -140 -15 -231 -23 -501 -84 -760 -171
-618 -208 -1205 -579 -1643 -1039 l-77 -80 -135 -10 c-621 -43 -1232 -313
-1672 -739 -73 -70 -78 -78 -78 -117 0 -32 7 -50 28 -74 l27 -31 405 -58 c223
-32 415 -60 428 -62 21 -3 18 -8 -37 -70 -67 -76 -80 -111 -57 -160 22 -45
1393 -1414 1430 -1428 46 -17 82 -3 154 61 l67 60 60 -419 c42 -292 65 -426
77 -443 9 -14 31 -32 48 -39 71 -29 140 24 319 249 339 426 538 939 580 1495
l10 128 163 167 c312 317 541 637 737 1029 262 523 411 1097 411 1587 0 111
-17 157 -66 175 -23 9 -210 11 -279 4z m127 -299 c-28 -774 -443 -1691 -1047
-2314 -88 -91 -1271 -1159 -1311 -1183 -5 -4 -284 267 -623 606 l-613 613 540
604 c296 332 592 656 658 719 624 603 1507 1002 2309 1043 98 5 90 13 87 -88z
m-2984 -1273 c-215 -249 -566 -632 -579 -632 -25 0 -712 100 -716 104 -6 6
115 99 222 171 118 78 379 209 519 260 122 45 331 99 456 118 142 22 137 23
98 -21z m1647 -1703 c-53 -354 -188 -701 -390 -1004 -82 -123 -155 -219 -161
-212 -7 6 -105 701 -102 720 3 15 659 610 666 603 1 -2 -5 -50 -13 -107z"/>
<path d="M3540 4174 c-201 -43 -362 -207 -405 -411 -8 -37 -15 -86 -15 -108 0
-189 125 -391 292 -473 71 -35 177 -62 243 -62 66 0 172 27 243 62 167 82 292
284 292 473 0 189 -127 395 -293 474 -120 58 -234 72 -357 45z m258 -233 c55
-28 115 -88 143 -143 34 -65 38 -185 9 -261 -94 -249 -458 -265 -581 -26 -27
52 -37 173 -20 236 24 87 119 186 205 213 56 17 196 6 244 -19z"/>
<path d="M955 1699 c-122 -18 -237 -70 -340 -155 -93 -76 -206 -281 -339 -617
-85 -213 -276 -785 -276 -825 0 -42 42 -90 86 -98 27 -5 74 6 212 51 710 229
1130 417 1246 558 223 272 214 640 -22 889 -101 107 -236 176 -388 198 -79 11
-96 11 -179 -1z m255 -237 c110 -43 208 -141 252 -252 18 -45 22 -75 23 -166
0 -107 -1 -112 -37 -185 -63 -128 -138 -185 -387 -296 -69 -30 -178 -76 -241
-100 -156 -61 -542 -195 -546 -190 -9 8 156 469 241 677 58 142 147 323 181
367 55 72 126 122 219 156 69 24 218 19 295 -11z"/>
</g>
</svg>
