<?xml version="1.0" standalone="no"?>
<!DOCTYPE svg PUBLIC "-//W3C//DTD SVG 20010904//EN"
 "http://www.w3.org/TR/2001/REC-SVG-20010904/DTD/svg10.dtd">
<svg version="1.0" xmlns="http://www.w3.org/2000/svg"
 width="512.000000pt" height="512.000000pt" viewBox="0 0 512.000000 512.000000"
 preserveAspectRatio="xMidYMid meet">

<g transform="translate(0.000000,512.000000) scale(0.100000,-0.100000)"
fill="#000000" stroke="none">
<path d="M2517 5106 c-205 -76 -234 -352 -50 -462 87 -52 162 -54 254 -8 82
41 139 136 139 230 0 85 -67 187 -150 229 -46 23 -145 29 -193 11z m133 -151
c32 -17 60 -61 60 -95 0 -36 -28 -77 -64 -94 -42 -20 -50 -20 -91 0 -48 22
-71 75 -56 126 20 66 89 95 151 63z"/>
<path d="M1679 4773 c-55 -9 -133 -66 -165 -121 -89 -147 -23 -323 141 -378
192 -66 386 128 321 323 -40 121 -170 198 -297 176z m96 -157 c35 -15 65 -59
65 -96 0 -54 -57 -110 -112 -110 -41 0 -86 36 -99 78 -15 50 8 103 54 126 40
19 49 20 92 2z"/>
<path d="M3375 4740 c-106 -14 -211 -64 -298 -139 -31 -27 -37 -40 -37 -71 0
-30 6 -43 26 -59 37 -29 54 -26 110 18 178 140 389 141 558 1 26 -22 57 -40
68 -40 26 0 78 53 78 80 0 29 -63 93 -135 135 -107 64 -245 91 -370 75z"/>
<path d="M3372 4422 c-101 -36 -148 -110 -102 -159 33 -36 54 -36 116 -3 31
16 64 30 72 30 8 0 39 -14 69 -31 49 -28 57 -30 84 -19 56 23 65 81 22 125
-64 64 -173 88 -261 57z"/>
<path d="M2550 4380 c-30 -30 -27 -83 6 -109 31 -24 43 -26 78 -10 34 16 47
57 31 96 -20 47 -79 59 -115 23z"/>
<path d="M804 4160 c-146 -20 -334 -137 -334 -208 0 -36 26 -69 60 -77 20 -5
40 5 94 44 116 86 222 112 346 87 75 -16 138 -47 193 -96 52 -45 81 -48 117
-12 42 43 39 71 -14 120 -63 58 -115 89 -198 116 -86 28 -179 37 -264 26z"/>
<path d="M4259 4143 c-15 -2 -51 -19 -80 -36 -62 -37 -114 -114 -125 -183 -14
-98 38 -202 131 -259 43 -27 57 -30 124 -30 91 1 140 22 195 87 36 42 66 118
66 168 0 47 -29 124 -61 163 -54 65 -164 105 -250 90z m116 -169 c35 -23 52
-83 35 -125 -15 -35 -63 -69 -98 -69 -53 0 -112 56 -112 105 0 33 32 84 63 99
36 18 74 15 112 -10z"/>
<path d="M2553 4085 c-29 -20 -37 -59 -19 -94 24 -46 67 -54 110 -20 72 57
-15 167 -91 114z"/>
<path d="M3144 4053 c-12 -2 -30 -13 -40 -25 -17 -17 -19 -41 -22 -179 l-3
-159 -39 0 c-22 0 -47 -8 -61 -19 -24 -19 -24 -20 -27 -270 l-3 -251 -398 0
c-388 0 -399 -1 -425 -21 l-26 -20 0 -470 0 -469 -352 2 -353 3 -3 152 c-2
150 -3 152 -29 172 -16 13 -41 21 -64 21 -38 0 -39 1 -39 38 0 180 -81 315
-224 378 l-66 28 0 237 c0 146 -4 248 -11 268 -19 54 -79 69 -117 28 -21 -23
-22 -30 -22 -280 0 -199 -3 -257 -12 -257 -35 0 -137 -62 -181 -109 -69 -74
-90 -127 -95 -238 l-4 -93 -45 0 c-33 0 -50 -6 -68 -25 l-25 -24 0 -836 c0
-822 0 -835 20 -855 30 -30 83 -27 109 6 21 26 21 33 21 805 l0 779 350 0 350
0 0 -1110 0 -1110 -350 0 -350 0 0 149 c0 135 -2 151 -21 175 -26 33 -79 36
-109 6 -18 -18 -20 -33 -20 -175 l0 -155 -170 0 c-168 0 -171 0 -195 -25 -32
-31 -32 -69 0 -100 l24 -25 2511 0 2511 0 24 25 c32 31 32 69 0 100 -23 24
-29 25 -155 25 l-130 0 0 835 0 836 -25 24 -24 25 -401 0 -400 0 0 359 c0 347
-1 359 -21 385 -25 31 -75 35 -108 9 l-22 -18 1 -1227 0 -1228 -355 0 -355 0
0 1695 0 1695 355 0 355 0 0 -300 c0 -287 1 -301 20 -320 24 -24 77 -27 106
-6 18 14 19 31 22 370 l3 356 -25 25 c-19 18 -36 25 -66 25 l-40 0 0 154 c0
149 -1 156 -24 183 l-24 28 -309 1 c-169 1 -318 0 -329 -3z m534 -255 l3 -108
-226 0 -225 0 0 103 c0 57 3 107 7 111 4 3 104 5 222 4 l216 -3 3 -107z m-728
-2223 l0 -1425 -350 0 -350 0 0 1425 0 1425 350 0 350 0 0 -1425z m-1995 1234
c26 -7 56 -28 86 -59 49 -50 69 -105 69 -190 l0 -40 -215 0 -215 0 0 70 c0
162 123 260 275 219z m1143 -881 l-3 -93 -188 -5 c-172 -5 -190 -7 -203 -24
-12 -17 -14 -134 -14 -739 0 -449 4 -725 10 -737 17 -31 67 -40 236 -40 l164
0 0 -70 0 -70 -355 0 -355 0 0 935 0 935 355 0 356 0 -3 -92z m2562 -993 l0
-785 -350 0 -350 0 0 785 0 785 350 0 350 0 0 -785z m-2562 128 l-3 -618 -127
-3 -128 -3 0 621 0 620 130 0 130 0 -2 -617z"/>
<path d="M2433 2798 c-13 -6 -27 -26 -33 -47 -15 -55 -12 -2306 3 -2351 14
-41 52 -59 95 -44 54 19 53 -11 50 1246 l-3 1160 -28 24 c-30 26 -50 29 -84
12z"/>
<path d="M2713 2798 c-13 -6 -27 -26 -33 -47 -15 -55 -12 -2306 3 -2351 14
-41 52 -59 95 -44 54 19 53 -11 50 1246 l-3 1160 -28 24 c-30 26 -50 29 -84
12z"/>
<path d="M4096 1499 c-33 -26 -36 -79 -6 -109 19 -19 33 -20 209 -20 165 0
191 2 210 18 33 26 31 79 -3 109 -26 22 -33 23 -205 23 -165 0 -180 -2 -205
-21z"/>
<path d="M4120 1193 c-51 -19 -68 -85 -30 -123 19 -19 33 -20 208 -20 217 0
232 4 232 70 0 30 -6 43 -26 59 -25 19 -39 21 -198 20 -94 0 -178 -3 -186 -6z"/>
<path d="M4120 873 c-52 -20 -68 -85 -30 -123 19 -19 33 -20 208 -20 217 0
232 5 232 69 0 26 -7 44 -21 57 -19 17 -40 19 -198 21 -97 1 -183 -1 -191 -4z"/>
<path d="M4120 553 c-52 -20 -68 -85 -30 -123 19 -19 33 -20 213 -20 175 0
196 2 210 18 24 27 22 85 -4 108 -19 17 -40 19 -198 21 -97 1 -183 -1 -191 -4z"/>
<path d="M1682 4027 c-31 -33 -29 -80 4 -106 44 -34 86 -26 110 21 39 75 -57
146 -114 85z"/>
<path d="M826 3849 c-74 -18 -146 -78 -146 -121 0 -11 14 -33 30 -50 35 -34
60 -33 112 5 41 30 93 28 144 -6 31 -21 48 -26 68 -21 51 12 72 76 40 122 -38
54 -167 91 -248 71z"/>
<path d="M2545 3775 c-14 -13 -25 -36 -25 -50 0 -14 11 -37 25 -50 13 -14 36
-25 50 -25 14 0 37 11 50 25 14 13 25 36 25 50 0 14 -11 37 -25 50 -13 14 -36
25 -50 25 -14 0 -37 -11 -50 -25z"/>
<path d="M1682 3727 c-31 -33 -29 -80 4 -106 44 -34 86 -26 110 21 39 75 -57
146 -114 85z"/>
<path d="M2546 3479 c-34 -27 -35 -71 -1 -104 13 -14 36 -25 50 -25 14 0 37
11 50 25 14 13 25 36 25 50 0 33 -41 75 -73 75 -13 0 -36 -9 -51 -21z"/>
<path d="M4262 3450 c-46 -44 -15 -130 47 -130 71 1 100 93 43 136 -25 20 -65
17 -90 -6z"/>
<path d="M1682 3427 c-31 -33 -29 -80 4 -106 44 -34 86 -26 110 21 39 75 -57
146 -114 85z"/>
<path d="M3270 3300 c-12 -12 -20 -33 -20 -55 0 -68 73 -100 118 -52 64 68
-33 172 -98 107z"/>
<path d="M3542 3297 c-29 -31 -29 -77 1 -105 48 -46 117 -14 117 53 0 68 -73
100 -118 52z"/>
<path d="M4262 3150 c-46 -44 -15 -130 47 -130 71 1 100 93 43 136 -25 20 -65
17 -90 -6z"/>
<path d="M1682 3127 c-31 -33 -29 -80 4 -106 44 -34 86 -26 110 21 39 75 -57
146 -114 85z"/>
<path d="M3270 2990 c-12 -12 -20 -33 -20 -55 0 -68 73 -100 118 -52 64 68
-33 172 -98 107z"/>
<path d="M3542 2987 c-29 -31 -29 -77 1 -105 48 -46 117 -14 117 53 0 68 -73
100 -118 52z"/>
<path d="M4262 2850 c-46 -44 -15 -130 47 -130 71 1 100 93 43 136 -25 20 -65
17 -90 -6z"/>
<path d="M1682 2827 c-31 -33 -29 -80 4 -106 44 -34 86 -26 110 21 39 75 -57
146 -114 85z"/>
<path d="M3270 2680 c-12 -12 -20 -33 -20 -55 0 -68 73 -100 118 -52 64 68
-33 172 -98 107z"/>
<path d="M3542 2677 c-29 -31 -29 -77 1 -105 48 -46 117 -14 117 53 0 68 -73
100 -118 52z"/>
<path d="M4262 2550 c-46 -44 -15 -130 47 -130 71 1 100 93 43 136 -25 20 -65
17 -90 -6z"/>
<path d="M1682 2527 c-31 -33 -29 -80 4 -106 44 -34 86 -26 110 21 39 75 -57
146 -114 85z"/>
<path d="M3270 2370 c-12 -12 -20 -33 -20 -55 0 -68 73 -100 118 -52 64 68
-33 172 -98 107z"/>
<path d="M3542 2367 c-29 -31 -29 -77 1 -105 48 -46 117 -14 117 53 0 68 -73
100 -118 52z"/>
<path d="M4262 2250 c-46 -44 -15 -130 47 -130 71 1 100 93 43 136 -25 20 -65
17 -90 -6z"/>
<path d="M686 2139 c-33 -26 -36 -79 -6 -109 19 -19 33 -20 210 -20 177 0 191
1 210 20 33 33 30 75 -6 108 -24 21 -33 22 -203 22 -165 0 -180 -2 -205 -21z"/>
<path d="M3270 2060 c-12 -12 -20 -33 -20 -55 0 -68 73 -100 118 -52 64 68
-33 172 -98 107z"/>
<path d="M3542 2057 c-29 -31 -29 -77 1 -105 48 -46 117 -14 117 53 0 68 -73
100 -118 52z"/>
<path d="M686 1819 c-33 -26 -36 -79 -6 -109 19 -19 33 -20 210 -20 177 0 191
1 210 20 33 33 30 75 -6 108 -24 21 -33 22 -203 22 -165 0 -180 -2 -205 -21z"/>
<path d="M3270 1750 c-12 -12 -20 -33 -20 -55 0 -68 73 -100 118 -52 64 68
-33 172 -98 107z"/>
<path d="M3542 1747 c-29 -31 -29 -77 1 -105 48 -46 117 -14 117 53 0 68 -73
100 -118 52z"/>
<path d="M686 1499 c-33 -26 -36 -79 -6 -109 19 -19 33 -20 209 -20 165 0 191
2 210 18 33 26 31 79 -3 109 -26 22 -33 23 -205 23 -165 0 -180 -2 -205 -21z"/>
<path d="M3270 1440 c-12 -12 -20 -33 -20 -55 0 -68 73 -100 118 -52 64 68
-33 172 -98 107z"/>
<path d="M3542 1437 c-29 -31 -29 -77 1 -105 48 -46 117 -14 117 53 0 68 -73
100 -118 52z"/>
<path d="M710 1193 c-51 -19 -68 -85 -30 -123 19 -19 33 -20 208 -20 217 0
232 4 232 70 0 30 -6 43 -26 59 -25 19 -39 21 -198 20 -94 0 -178 -3 -186 -6z"/>
<path d="M3270 1130 c-12 -12 -20 -33 -20 -55 0 -68 73 -100 118 -52 64 68
-33 172 -98 107z"/>
<path d="M3542 1127 c-29 -31 -29 -77 1 -105 48 -46 117 -14 117 53 0 68 -73
100 -118 52z"/>
<path d="M710 873 c-52 -20 -68 -85 -30 -123 19 -19 33 -20 208 -20 217 0 232
5 232 69 0 26 -7 44 -21 57 -19 17 -40 19 -198 21 -97 1 -183 -1 -191 -4z"/>
<path d="M3270 820 c-12 -12 -20 -33 -20 -55 0 -68 73 -100 118 -52 64 68 -33
172 -98 107z"/>
<path d="M3542 817 c-29 -31 -29 -77 1 -105 48 -46 117 -14 117 53 0 68 -73
100 -118 52z"/>
<path d="M710 553 c-52 -20 -68 -85 -30 -123 19 -19 33 -20 213 -20 175 0 196
2 210 18 24 27 22 85 -4 108 -19 17 -40 19 -198 21 -97 1 -183 -1 -191 -4z"/>
<path d="M3270 510 c-12 -12 -20 -33 -20 -55 0 -68 73 -100 118 -52 64 68 -33
172 -98 107z"/>
<path d="M3542 507 c-29 -31 -29 -77 1 -105 48 -46 117 -14 117 53 0 68 -73
100 -118 52z"/>
</g>
</svg>
