<?xml version="1.0" standalone="no"?>
<!DOCTYPE svg PUBLIC "-//W3C//DTD SVG 20010904//EN"
 "http://www.w3.org/TR/2001/REC-SVG-20010904/DTD/svg10.dtd">
<svg version="1.0" xmlns="http://www.w3.org/2000/svg"
 width="512.000000pt" height="512.000000pt" viewBox="0 0 512.000000 512.000000"
 preserveAspectRatio="xMidYMid meet">

<g transform="translate(0.000000,512.000000) scale(0.100000,-0.100000)"
fill="#000000" stroke="none">
<path d="M2220 4950 l0 -170 85 0 85 0 0 -202 0 -203 -88 -24 c-456 -125 -893
-423 -1175 -802 l-27 -37 136 -98 137 -98 21 26 c123 148 185 214 266 283 454
393 1043 550 1622 430 730 -150 1299 -714 1454 -1440 147 -693 -103 -1403
-656 -1855 -218 -178 -506 -316 -784 -376 -610 -129 -1241 50 -1694 481 -48
45 -118 121 -156 169 -39 47 -73 85 -76 84 -4 -2 -66 -45 -138 -97 -87 -63
-129 -99 -124 -107 27 -48 151 -190 248 -283 605 -586 1464 -779 2269 -509
202 68 502 234 670 371 81 67 242 226 310 308 254 303 430 695 492 1099 24
159 24 482 0 640 -74 469 -276 884 -591 1209 -303 313 -615 493 -1083 627 -10
3 -13 52 -13 204 l0 200 85 0 85 0 0 170 0 170 -680 0 -680 0 0 -170z m850
-342 l0 -173 -170 0 -170 -1 0 173 0 173 170 0 170 0 0 -172z"/>
<path d="M3435 2990 l-310 -310 -60 21 c-181 64 -385 16 -523 -123 -193 -192
-202 -489 -22 -699 113 -132 324 -199 500 -158 175 40 328 190 375 370 22 83
19 202 -8 279 l-23 65 310 313 311 312 -120 120 -120 120 -310 -310z m-458
-621 c86 -41 118 -149 70 -234 -65 -115 -239 -111 -296 8 -34 71 -25 135 27
191 55 58 126 71 199 35z"/>
<path d="M340 2900 l0 -170 770 0 770 0 0 170 0 170 -770 0 -770 0 0 -170z"/>
<path d="M0 2220 l0 -170 770 0 770 0 0 170 0 170 -770 0 -770 0 0 -170z"/>
<path d="M340 1540 l0 -170 770 0 770 0 -2 168 -3 167 -767 3 -768 2 0 -170z"/>
</g>
</svg>
